<?xml version="1.0" encoding="UTF-8"?>
<!DOCTYPE svg PUBLIC "-//W3C//DTD SVG 1.1//EN" "http://www.w3.org/Graphics/SVG/1.1/DTD/svg11.dtd">
<svg xmlns="http://www.w3.org/2000/svg" version="1.1" width="3351px" height="1183px" style="shape-rendering:geometricPrecision; text-rendering:geometricPrecision; image-rendering:optimizeQuality; fill-rule:evenodd; clip-rule:evenodd" xmlns:xlink="http://www.w3.org/1999/xlink">
<g><path style="opacity:0.989" fill="#e21d23" d="M 1645.5,-0.5 C 1658.83,-0.5 1672.17,-0.5 1685.5,-0.5C 1709.71,0.451065 1734.04,1.95106 1758.5,4C 1681,4.61106 1604.66,14.2777 1529.5,33C 1350.33,80.5302 1222.16,188.364 1145,356.5C 1121.95,408.675 1104.45,462.675 1092.5,518.5C 1048.17,518.5 1003.83,518.5 959.5,518.5C 989.468,406.201 1042.63,306.868 1119,220.5C 1213.6,118.092 1329.43,51.5915 1466.5,21C 1525.62,8.00669 1585.29,0.84002 1645.5,-0.5 Z"/></g>
<g><path style="opacity:0.996" fill="#f5a209" d="M 1748.5,23.5 C 1755.17,23.3337 1761.84,23.5004 1768.5,24C 1702.59,36.0584 1638.93,55.3917 1577.5,82C 1457.57,138.267 1371.07,227.1 1318,348.5C 1294.24,403.273 1276.41,459.94 1264.5,518.5C 1223.5,519.833 1182.5,519.833 1141.5,518.5C 1160.37,443.705 1188.54,372.705 1226,305.5C 1303.13,174.759 1415.3,89.5924 1562.5,50C 1623.68,34.379 1685.68,25.5457 1748.5,23.5 Z"/></g>
<g><path style="opacity:0.993" fill="#1f55a0" d="M 1823.5,31.5 C 1936.13,30.7649 2036.8,64.5983 2125.5,133C 2184.69,180.503 2234.19,236.336 2274,300.5C 2327.61,390.462 2365.44,486.796 2387.5,589.5C 2355.17,588.732 2322.84,588.398 2290.5,588.5C 2277.93,495.868 2252.76,406.868 2215,321.5C 2186.1,257.516 2146.27,201.349 2095.5,153C 2008.07,76.1932 1906.07,43.1932 1789.5,54C 1728.9,63.0831 1673.56,85.0831 1623.5,120C 1563.01,164.151 1514.18,218.651 1477,283.5C 1436.49,356.346 1407.83,433.68 1391,515.5C 1386.11,539.638 1381.61,563.804 1377.5,588C 1237.17,588.5 1096.83,588.667 956.5,588.5C 956.5,576.167 956.5,563.833 956.5,551.5C 1072.83,551.5 1189.17,551.5 1305.5,551.5C 1327.96,429.629 1377.12,320.295 1453,223.5C 1514.9,147.624 1591.73,92.4575 1683.5,58C 1729.01,42.2635 1775.67,33.4302 1823.5,31.5 Z"/></g>
<g><path style="opacity:0.996" fill="#f5a209" d="M 1754.5,69.5 C 1921.53,62.7564 2050.36,128.756 2141,267.5C 2181.26,332.58 2211.26,402.246 2231,476.5C 2241.15,513.414 2249.32,550.748 2255.5,588.5C 2217.17,588.5 2178.83,588.5 2140.5,588.5C 2133.47,508.048 2114.97,430.381 2085,355.5C 2035.43,237.932 1952.27,153.432 1835.5,102C 1808.04,90.2898 1780.04,79.9565 1751.5,71C 1752.74,70.7679 1753.74,70.2679 1754.5,69.5 Z"/></g>
<g><path style="opacity:0.986" fill="#e21d23" d="M 1689.5,98.5 C 1690.96,97.8401 1692.63,97.5068 1694.5,97.5C 1804.57,111.525 1895.4,160.525 1967,244.5C 2025.75,316.681 2064.75,398.681 2084,490.5C 2091.01,522.887 2096.18,555.554 2099.5,588.5C 1878.83,588.5 1658.17,588.5 1437.5,588.5C 1437.5,575.833 1437.5,563.167 1437.5,550.5C 1621.17,551.296 1804.83,551.63 1988.5,551.5C 1984,474.821 1966.83,401.154 1937,330.5C 1886.1,219.464 1803.6,142.13 1689.5,98.5 Z"/></g>
<g><path style="opacity:0.967" fill="#0e1c9b" d="M 335.5,715.5 C 371.924,714.091 390.924,731.591 392.5,768C 390.429,806.041 370.429,823.041 332.5,819C 311.88,814.713 299.713,802.213 296,781.5C 293.081,765.341 295.415,750.008 303,735.5C 310.852,723.831 321.685,717.165 335.5,715.5 Z M 339.5,733.5 C 356.995,732.987 367.162,741.32 370,758.5C 372.5,772.015 369.667,784.182 361.5,795C 350.966,802.794 339.966,803.461 328.5,797C 318.149,786.64 314.316,774.14 317,759.5C 318.71,745.635 326.21,736.969 339.5,733.5 Z"/></g>
<g><path style="opacity:0.967" fill="#0e1c9b" d="M 922.5,715.5 C 958.67,714.003 977.67,731.336 979.5,767.5C 980.281,790.806 970.281,807.306 949.5,817C 932.742,821.668 916.742,820.001 901.5,812C 891.425,804.698 885.259,794.864 883,782.5C 879.955,766.481 881.955,751.148 889,736.5C 897.016,724.289 908.183,717.289 922.5,715.5 Z M 926.5,733.5 C 944.169,733.334 954.336,742.001 957,759.5C 958.193,768.756 957.193,777.756 954,786.5C 944.492,802.001 931.659,805.501 915.5,797C 908.939,791.712 905.105,784.878 904,776.5C 902.213,765.246 903.88,754.58 909,744.5C 913.578,738.638 919.411,734.972 926.5,733.5 Z"/></g>
<g><path style="opacity:0.967" fill="#0e1c9b" d="M 1547.5,715.5 C 1568.6,712.974 1585.1,720.308 1597,737.5C 1600.14,743.116 1602.14,749.116 1603,755.5C 1605.47,771.002 1603.13,785.668 1596,799.5C 1582.97,816.407 1565.8,822.907 1544.5,819C 1524.78,814.951 1512.62,803.118 1508,783.5C 1504.37,766.264 1506.7,749.931 1515,734.5C 1523.23,723.636 1534.07,717.302 1547.5,715.5 Z M 1551.5,733.5 C 1567.5,732.682 1577.34,740.015 1581,755.5C 1583.72,768.135 1582.05,780.135 1576,791.5C 1566.15,802.172 1554.65,804.339 1541.5,798C 1534.67,792.849 1530.5,786.016 1529,777.5C 1527.42,766.41 1528.75,755.744 1533,745.5C 1537.67,739.089 1543.83,735.089 1551.5,733.5 Z"/></g>
<g><path style="opacity:0.967" fill="#0e1c9b" d="M 2040.5,715.5 C 2076.91,714.075 2095.91,731.575 2097.5,768C 2098.09,786.139 2091.43,800.805 2077.5,812C 2059.49,821.228 2041.16,821.894 2022.5,814C 2010.64,806.787 2003.47,796.287 2001,782.5C 1997.92,766.471 1999.92,751.138 2007,736.5C 2015,724.261 2026.16,717.261 2040.5,715.5 Z M 2044.5,733.5 C 2062.62,733.456 2072.79,742.456 2075,760.5C 2077.55,774.809 2073.71,786.976 2063.5,797C 2049.57,804.66 2037.4,802.493 2027,790.5C 2019.67,775.167 2019.67,759.833 2027,744.5C 2031.59,738.632 2037.43,734.965 2044.5,733.5 Z"/></g>
<g><path style="opacity:0.966" fill="#0f1c9b" d="M 2279.5,715.5 C 2315.68,714.009 2334.68,731.342 2336.5,767.5C 2334.4,805.396 2314.4,822.563 2276.5,819C 2256.78,814.947 2244.61,803.114 2240,783.5C 2236.67,767.117 2238.67,751.45 2246,736.5C 2253.92,724.291 2265.09,717.291 2279.5,715.5 Z M 2283.5,733.5 C 2301.64,733.47 2311.8,742.47 2314,760.5C 2316.55,774.809 2312.71,786.976 2302.5,797C 2281.2,806.454 2267.37,799.954 2261,777.5C 2259.12,765.904 2260.79,754.904 2266,744.5C 2270.59,738.632 2276.43,734.965 2283.5,733.5 Z"/></g>
<g><path style="opacity:0.961" fill="#0f1c9b" d="M 2720.5,715.5 C 2735.77,713.759 2748.94,718.092 2760,728.5C 2764.3,733.43 2766.64,739.097 2767,745.5C 2760.29,747.609 2753.46,749.276 2746.5,750.5C 2744.12,739.626 2737.28,733.959 2726,733.5C 2714.46,734.375 2707.13,740.375 2704,751.5C 2702.49,760.447 2702.15,769.447 2703,778.5C 2706.93,798.711 2718.43,805.211 2737.5,798C 2739.33,796.167 2741.17,794.333 2743,792.5C 2744.64,788.223 2746.64,784.223 2749,780.5C 2755.64,782.268 2762.14,784.434 2768.5,787C 2760.74,812.06 2743.74,822.727 2717.5,819C 2695.8,813.625 2683.63,799.791 2681,777.5C 2678.06,757.75 2683.22,740.583 2696.5,726C 2703.75,720.535 2711.75,717.035 2720.5,715.5 Z"/></g>
<g><path style="opacity:0.967" fill="#0e1c9b" d="M 2998.5,715.5 C 3018.27,713.15 3034.43,719.483 3047,734.5C 3056.74,753.543 3058.07,773.21 3051,793.5C 3039.17,814.993 3021,823.493 2996.5,819C 2977.66,815.161 2965.49,803.995 2960,785.5C 2958.47,775.552 2958.14,765.552 2959,755.5C 2963.05,732.955 2976.21,719.621 2998.5,715.5 Z M 3002.5,733.5 C 3019.2,732.593 3029.37,740.259 3033,756.5C 3034.07,766.311 3033.41,775.978 3031,785.5C 3025.04,797.896 3015.21,803.062 3001.5,801C 2990.27,798.098 2983.43,790.932 2981,779.5C 2978.75,769.305 2979.42,759.305 2983,749.5C 2986.79,740.709 2993.29,735.376 3002.5,733.5 Z"/></g>
<g><path style="opacity:0.977" fill="#0e1c9b" d="M 554.5,716.5 C 558.167,716.5 561.833,716.5 565.5,716.5C 565.5,721.833 565.5,727.167 565.5,732.5C 559.117,731.476 553.617,733.143 549,737.5C 545.942,744.007 543.275,750.674 541,757.5C 538.833,761 536,763.833 532.5,766C 537.864,768.027 542.031,771.527 545,776.5C 552.549,789.762 559.715,803.262 566.5,817C 558.167,817.667 549.833,817.667 541.5,817C 535.32,803.472 528.486,790.305 521,777.5C 518.581,775.415 515.747,774.415 512.5,774.5C 512.5,788.833 512.5,803.167 512.5,817.5C 505.5,817.5 498.5,817.5 491.5,817.5C 491.5,784.167 491.5,750.833 491.5,717.5C 498.5,717.5 505.5,717.5 512.5,717.5C 512.5,731.5 512.5,745.5 512.5,759.5C 515.675,759.497 518.508,758.497 521,756.5C 525.728,746.044 530.728,735.711 536,725.5C 541.011,719.91 547.178,716.91 554.5,716.5 Z"/></g>
<g><path style="opacity:0.962" fill="#0e1c9b" d="M 1288.5,716.5 C 1291.83,716.5 1295.17,716.5 1298.5,716.5C 1298.5,721.833 1298.5,727.167 1298.5,732.5C 1292.72,731.708 1287.55,733.041 1283,736.5C 1279.33,744.833 1275.67,753.167 1272,761.5C 1270.44,763.359 1268.61,764.859 1266.5,766C 1269.43,767.271 1272.1,768.938 1274.5,771C 1283.6,785.854 1291.93,801.187 1299.5,817C 1291.17,817.667 1282.83,817.667 1274.5,817C 1268.86,805.062 1263.02,793.229 1257,781.5C 1254.94,776.935 1251.44,774.602 1246.5,774.5C 1246.5,788.833 1246.5,803.167 1246.5,817.5C 1239.5,817.5 1232.5,817.5 1225.5,817.5C 1225.5,784.167 1225.5,750.833 1225.5,717.5C 1232.5,717.5 1239.5,717.5 1246.5,717.5C 1246.5,731.5 1246.5,745.5 1246.5,759.5C 1249.94,759.411 1252.77,758.078 1255,755.5C 1259.62,744.959 1264.62,734.626 1270,724.5C 1275.24,719.494 1281.4,716.827 1288.5,716.5 Z"/></g>
<g><path style="opacity:0.952" fill="#0e1c9b" d="M 399.5,717.5 C 426.167,717.5 452.833,717.5 479.5,717.5C 479.5,723.5 479.5,729.5 479.5,735.5C 469.833,735.5 460.167,735.5 450.5,735.5C 450.5,762.833 450.5,790.167 450.5,817.5C 443.5,817.5 436.5,817.5 429.5,817.5C 429.5,790.167 429.5,762.833 429.5,735.5C 419.5,735.5 409.5,735.5 399.5,735.5C 399.5,729.5 399.5,723.5 399.5,717.5 Z"/></g>
<g><path style="opacity:0.961" fill="#0e1c9b" d="M 576.5,717.5 C 595.541,717.079 614.541,717.579 633.5,719C 644.624,722.459 651.124,729.959 653,741.5C 655.994,760.029 648.827,772.529 631.5,779C 620.206,780.293 608.873,780.793 597.5,780.5C 597.5,792.833 597.5,805.167 597.5,817.5C 590.5,817.5 583.5,817.5 576.5,817.5C 576.5,784.167 576.5,750.833 576.5,717.5 Z M 597.5,735.5 C 606.568,735.119 615.568,735.619 624.5,737C 631.426,741.578 633.259,747.745 630,755.5C 628.337,757.917 626.171,759.75 623.5,761C 614.893,762.339 606.226,762.839 597.5,762.5C 597.5,753.5 597.5,744.5 597.5,735.5 Z"/></g>
<g><path style="opacity:0.971" fill="#0f1c9b" d="M 669.5,717.5 C 676.5,717.5 683.5,717.5 690.5,717.5C 690.5,730.833 690.5,744.167 690.5,757.5C 702.838,757.333 715.171,757.5 727.5,758C 743.994,761.164 752.661,771.164 753.5,788C 752.96,803.45 745.294,813.117 730.5,817C 710.169,817.5 689.836,817.667 669.5,817.5C 669.5,784.167 669.5,750.833 669.5,717.5 Z M 690.5,775.5 C 701.896,775.091 713.23,775.591 724.5,777C 731.122,780.866 732.955,786.366 730,793.5C 728.039,796.135 725.539,797.969 722.5,799C 711.873,800.276 701.207,800.776 690.5,800.5C 690.5,792.167 690.5,783.833 690.5,775.5 Z"/></g>
<g><path style="opacity:0.996" fill="#0e1c9b" d="M 763.5,717.5 C 770.5,717.5 777.5,717.5 784.5,717.5C 784.5,750.833 784.5,784.167 784.5,817.5C 777.5,817.5 770.5,817.5 763.5,817.5C 763.5,784.167 763.5,750.833 763.5,717.5 Z"/></g>
<g><path style="opacity:0.971" fill="#0e1c9b" d="M 797.5,717.5 C 824.167,717.5 850.833,717.5 877.5,717.5C 877.5,723.5 877.5,729.5 877.5,735.5C 867.833,735.5 858.167,735.5 848.5,735.5C 848.5,762.833 848.5,790.167 848.5,817.5C 841.167,817.5 833.833,817.5 826.5,817.5C 826.5,790.167 826.5,762.833 826.5,735.5C 816.833,735.5 807.167,735.5 797.5,735.5C 797.5,729.5 797.5,723.5 797.5,717.5 Z"/></g>
<g><path style="opacity:0.953" fill="#0e1c9b" d="M 993.5,717.5 C 1018.5,717.5 1043.5,717.5 1068.5,717.5C 1068.5,723.5 1068.5,729.5 1068.5,735.5C 1050.5,735.5 1032.5,735.5 1014.5,735.5C 1014.5,742.5 1014.5,749.5 1014.5,756.5C 1031.17,756.5 1047.83,756.5 1064.5,756.5C 1064.5,762.5 1064.5,768.5 1064.5,774.5C 1047.83,774.5 1031.17,774.5 1014.5,774.5C 1014.5,783.167 1014.5,791.833 1014.5,800.5C 1033.17,800.5 1051.83,800.5 1070.5,800.5C 1070.5,806.167 1070.5,811.833 1070.5,817.5C 1044.83,817.5 1019.17,817.5 993.5,817.5C 993.5,784.167 993.5,750.833 993.5,717.5 Z"/></g>
<g><path style="opacity:0.967" fill="#0e1c9b" d="M 1153.5,717.5 C 1161.09,717.186 1168.59,717.519 1176,718.5C 1189.07,751.207 1202.24,783.873 1215.5,816.5C 1207.85,817.665 1200.19,817.831 1192.5,817C 1189.74,810.223 1187.07,803.39 1184.5,796.5C 1171.18,795.501 1157.85,795.167 1144.5,795.5C 1142.17,802.833 1139.83,810.167 1137.5,817.5C 1129.8,817.831 1122.14,817.497 1114.5,816.5C 1127.7,783.55 1140.7,750.55 1153.5,717.5 Z M 1163.5,743.5 C 1168.52,754.39 1173.19,765.557 1177.5,777C 1168.83,777.667 1160.17,777.667 1151.5,777C 1155.8,765.929 1159.8,754.762 1163.5,743.5 Z"/></g>
<g><path style="opacity:0.959" fill="#0e1c9b" d="M 1309.5,717.5 C 1316.5,717.5 1323.5,717.5 1330.5,717.5C 1330.5,745.167 1330.5,772.833 1330.5,800.5C 1343.17,800.5 1355.83,800.5 1368.5,800.5C 1368.5,772.833 1368.5,745.167 1368.5,717.5C 1375.5,717.5 1382.5,717.5 1389.5,717.5C 1389.5,745.167 1389.5,772.833 1389.5,800.5C 1392.5,800.5 1395.5,800.5 1398.5,800.5C 1398.5,813.5 1398.5,826.5 1398.5,839.5C 1392.5,839.5 1386.5,839.5 1380.5,839.5C 1380.5,832.167 1380.5,824.833 1380.5,817.5C 1356.83,817.5 1333.17,817.5 1309.5,817.5C 1309.5,784.167 1309.5,750.833 1309.5,717.5 Z"/></g>
<g><path style="opacity:0.967" fill="#0e1c9b" d="M 1411.5,717.5 C 1417.83,717.5 1424.17,717.5 1430.5,717.5C 1430.33,739.169 1430.5,760.836 1431,782.5C 1443.63,761.036 1456.47,739.702 1469.5,718.5C 1476.8,717.503 1484.14,717.169 1491.5,717.5C 1491.5,750.833 1491.5,784.167 1491.5,817.5C 1484.83,817.5 1478.17,817.5 1471.5,817.5C 1471.67,796.497 1471.5,775.497 1471,754.5C 1458.33,775.167 1445.67,795.833 1433,816.5C 1425.92,817.48 1418.75,817.813 1411.5,817.5C 1411.5,784.167 1411.5,750.833 1411.5,717.5 Z"/></g>
<g><path style="opacity:0.97" fill="#0e1c9b" d="M 1618.5,717.5 C 1625.5,717.5 1632.5,717.5 1639.5,717.5C 1639.5,730.5 1639.5,743.5 1639.5,756.5C 1652.17,756.5 1664.83,756.5 1677.5,756.5C 1677.5,743.5 1677.5,730.5 1677.5,717.5C 1684.5,717.5 1691.5,717.5 1698.5,717.5C 1698.5,750.833 1698.5,784.167 1698.5,817.5C 1691.5,817.5 1684.5,817.5 1677.5,817.5C 1677.5,803.167 1677.5,788.833 1677.5,774.5C 1664.83,774.5 1652.17,774.5 1639.5,774.5C 1639.5,788.833 1639.5,803.167 1639.5,817.5C 1632.5,817.5 1625.5,817.5 1618.5,817.5C 1618.5,784.167 1618.5,750.833 1618.5,717.5 Z"/></g>
<g><path style="opacity:0.953" fill="#0e1c9b" d="M 1718.5,717.5 C 1743.5,717.5 1768.5,717.5 1793.5,717.5C 1793.5,723.5 1793.5,729.5 1793.5,735.5C 1775.5,735.5 1757.5,735.5 1739.5,735.5C 1739.5,742.5 1739.5,749.5 1739.5,756.5C 1756.17,756.5 1772.83,756.5 1789.5,756.5C 1789.5,762.5 1789.5,768.5 1789.5,774.5C 1772.83,774.5 1756.17,774.5 1739.5,774.5C 1739.5,783.167 1739.5,791.833 1739.5,800.5C 1758.17,800.5 1776.83,800.5 1795.5,800.5C 1795.5,806.167 1795.5,811.833 1795.5,817.5C 1769.83,817.5 1744.17,817.5 1718.5,817.5C 1718.5,784.167 1718.5,750.833 1718.5,717.5 Z"/></g>
<g><path style="opacity:0.963" fill="#0e1c9b" d="M 1811.5,717.5 C 1830.54,717.079 1849.54,717.579 1868.5,719C 1880.06,722.605 1886.56,730.438 1888,742.5C 1890.68,760.65 1883.52,772.817 1866.5,779C 1855.2,780.259 1843.87,780.759 1832.5,780.5C 1832.5,792.833 1832.5,805.167 1832.5,817.5C 1825.5,817.5 1818.5,817.5 1811.5,817.5C 1811.5,784.167 1811.5,750.833 1811.5,717.5 Z M 1832.5,735.5 C 1841.25,735.09 1849.92,735.59 1858.5,737C 1866.37,741.051 1868.54,747.218 1865,755.5C 1863.13,757.709 1860.96,759.542 1858.5,761C 1849.89,762.339 1841.23,762.839 1832.5,762.5C 1832.5,753.5 1832.5,744.5 1832.5,735.5 Z"/></g>
<g><path style="opacity:0.953" fill="#0e1c9b" d="M 1903.5,717.5 C 1910.5,717.5 1917.5,717.5 1924.5,717.5C 1924.5,730.5 1924.5,743.5 1924.5,756.5C 1937.5,756.5 1950.5,756.5 1963.5,756.5C 1963.5,743.5 1963.5,730.5 1963.5,717.5C 1970.5,717.5 1977.5,717.5 1984.5,717.5C 1984.5,750.833 1984.5,784.167 1984.5,817.5C 1977.5,817.5 1970.5,817.5 1963.5,817.5C 1963.5,803.167 1963.5,788.833 1963.5,774.5C 1950.5,774.5 1937.5,774.5 1924.5,774.5C 1924.5,788.833 1924.5,803.167 1924.5,817.5C 1917.5,817.5 1910.5,817.5 1903.5,817.5C 1903.5,784.167 1903.5,750.833 1903.5,717.5 Z"/></g>
<g><path style="opacity:0.953" fill="#0e1c9b" d="M 2111.5,717.5 C 2136.5,717.5 2161.5,717.5 2186.5,717.5C 2186.5,723.5 2186.5,729.5 2186.5,735.5C 2168.5,735.5 2150.5,735.5 2132.5,735.5C 2132.5,742.5 2132.5,749.5 2132.5,756.5C 2149.17,756.5 2165.83,756.5 2182.5,756.5C 2182.5,762.5 2182.5,768.5 2182.5,774.5C 2165.83,774.5 2149.17,774.5 2132.5,774.5C 2132.5,783.167 2132.5,791.833 2132.5,800.5C 2151.17,800.5 2169.83,800.5 2188.5,800.5C 2188.5,806.167 2188.5,811.833 2188.5,817.5C 2162.83,817.5 2137.17,817.5 2111.5,817.5C 2111.5,784.167 2111.5,750.833 2111.5,717.5 Z"/></g>
<g><path style="opacity:0.971" fill="#0e1c9b" d="M 2350.5,717.5 C 2375.83,717.5 2401.17,717.5 2426.5,717.5C 2426.5,723.5 2426.5,729.5 2426.5,735.5C 2408.5,735.5 2390.5,735.5 2372.5,735.5C 2372.5,742.833 2372.5,750.167 2372.5,757.5C 2384.5,757.333 2396.5,757.5 2408.5,758C 2429.83,762.696 2438.33,775.863 2434,797.5C 2430.99,806.353 2425.16,812.52 2416.5,816C 2394.54,817.445 2372.54,817.945 2350.5,817.5C 2350.5,784.167 2350.5,750.833 2350.5,717.5 Z M 2372.5,775.5 C 2383.56,775.094 2394.56,775.594 2405.5,777C 2413.15,780.963 2414.99,786.796 2411,794.5C 2409.27,796.617 2407.1,798.117 2404.5,799C 2393.87,800.276 2383.21,800.776 2372.5,800.5C 2372.5,792.167 2372.5,783.833 2372.5,775.5 Z"/></g>
<g><path style="opacity:0.975" fill="#0e1c9b" d="M 2450.5,717.5 C 2457.5,717.5 2464.5,717.5 2471.5,717.5C 2471.5,745.167 2471.5,772.833 2471.5,800.5C 2480.83,800.5 2490.17,800.5 2499.5,800.5C 2499.5,772.833 2499.5,745.167 2499.5,717.5C 2506.5,717.5 2513.5,717.5 2520.5,717.5C 2520.5,745.167 2520.5,772.833 2520.5,800.5C 2529.83,800.5 2539.17,800.5 2548.5,800.5C 2548.5,772.833 2548.5,745.167 2548.5,717.5C 2555.83,717.5 2563.17,717.5 2570.5,717.5C 2570.5,745.167 2570.5,772.833 2570.5,800.5C 2573.5,800.5 2576.5,800.5 2579.5,800.5C 2579.5,813.5 2579.5,826.5 2579.5,839.5C 2573.5,839.5 2567.5,839.5 2561.5,839.5C 2561.5,832.167 2561.5,824.833 2561.5,817.5C 2524.5,817.5 2487.5,817.5 2450.5,817.5C 2450.5,784.167 2450.5,750.833 2450.5,717.5 Z"/></g>
<g><path style="opacity:0.953" fill="#0e1c9b" d="M 2591.5,717.5 C 2616.5,717.5 2641.5,717.5 2666.5,717.5C 2666.5,723.5 2666.5,729.5 2666.5,735.5C 2648.5,735.5 2630.5,735.5 2612.5,735.5C 2612.5,742.5 2612.5,749.5 2612.5,756.5C 2629.17,756.5 2645.83,756.5 2662.5,756.5C 2662.5,762.5 2662.5,768.5 2662.5,774.5C 2645.83,774.5 2629.17,774.5 2612.5,774.5C 2612.5,783.167 2612.5,791.833 2612.5,800.5C 2631.17,800.5 2649.83,800.5 2668.5,800.5C 2668.5,806.167 2668.5,811.833 2668.5,817.5C 2642.83,817.5 2617.17,817.5 2591.5,817.5C 2591.5,784.167 2591.5,750.833 2591.5,717.5 Z"/></g>
<g><path style="opacity:0.948" fill="#0e1c9b" d="M 2773.5,717.5 C 2800.17,717.5 2826.83,717.5 2853.5,717.5C 2853.5,723.5 2853.5,729.5 2853.5,735.5C 2843.83,735.5 2834.17,735.5 2824.5,735.5C 2824.5,762.833 2824.5,790.167 2824.5,817.5C 2817.5,817.5 2810.5,817.5 2803.5,817.5C 2803.5,790.167 2803.5,762.833 2803.5,735.5C 2793.5,735.5 2783.5,735.5 2773.5,735.5C 2773.5,729.5 2773.5,723.5 2773.5,717.5 Z"/></g>
<g><path style="opacity:0.968" fill="#0e1c9b" d="M 2865.5,717.5 C 2884.17,717.333 2902.84,717.5 2921.5,718C 2939.17,721.687 2946.67,732.52 2944,750.5C 2941.9,756.557 2938.07,761.057 2932.5,764C 2946.56,770.283 2952.06,781.116 2949,796.5C 2945.95,808.22 2938.45,815.054 2926.5,817C 2906.17,817.5 2885.84,817.667 2865.5,817.5C 2865.5,784.167 2865.5,750.833 2865.5,717.5 Z M 2886.5,734.5 C 2896.86,734.483 2907.19,734.983 2917.5,736C 2924.24,739.322 2926.07,744.489 2923,751.5C 2921.27,753.617 2919.1,755.117 2916.5,756C 2906.51,756.5 2896.51,756.666 2886.5,756.5C 2886.5,749.167 2886.5,741.833 2886.5,734.5 Z M 2886.5,774.5 C 2897.55,774.121 2908.55,774.621 2919.5,776C 2927.24,779.542 2929.74,785.375 2927,793.5C 2925.13,795.709 2922.96,797.542 2920.5,799C 2909.21,800.293 2897.87,800.793 2886.5,800.5C 2886.5,791.833 2886.5,783.167 2886.5,774.5 Z"/></g>
<g><path style="opacity:0.966" fill="#0e1c9b" d="M 1435.5,863.5 C 1443.98,862.507 1452.65,862.174 1461.5,862.5C 1463.67,875.993 1471.67,882.66 1485.5,882.5C 1499.82,883.168 1508.15,876.501 1510.5,862.5C 1518.83,862.5 1527.17,862.5 1535.5,862.5C 1533.82,883.04 1523.49,897.207 1504.5,905C 1486.07,910.199 1468.74,907.866 1452.5,898C 1442.12,888.738 1436.45,877.238 1435.5,863.5 Z"/></g>
<g><path style="opacity:0.965" fill="#0e1c9b" d="M 2134.5,862.5 C 2142.83,862.5 2151.17,862.5 2159.5,862.5C 2161.78,876.272 2169.95,882.938 2184,882.5C 2194.28,883.196 2201.95,879.196 2207,870.5C 2208.08,867.937 2208.58,865.271 2208.5,862.5C 2217.17,862.334 2225.84,862.5 2234.5,863C 2230.06,892.271 2213.06,907.104 2183.5,907.5C 2153.41,907.407 2137.08,892.407 2134.5,862.5 Z"/></g>
<g><path style="opacity:0.988" fill="#0e1c9b" d="M 2486.5,919.5 C 2500.17,919.5 2513.83,919.5 2527.5,919.5C 2527.18,928.085 2527.52,936.585 2528.5,945C 2589.84,950.664 2618.34,984.164 2614,1045.5C 2608.65,1081.86 2588.15,1104.69 2552.5,1114C 2544.54,1115.83 2536.54,1117.33 2528.5,1118.5C 2527.5,1127.14 2527.17,1135.81 2527.5,1144.5C 2513.83,1144.5 2500.17,1144.5 2486.5,1144.5C 2486.82,1135.58 2486.48,1126.75 2485.5,1118C 2424.6,1112.01 2396.1,1078.51 2400,1017.5C 2404.59,985.248 2422.09,963.415 2452.5,952C 2463.51,948.098 2474.84,945.931 2486.5,945.5C 2486.5,936.833 2486.5,928.167 2486.5,919.5 Z M 2484.5,981.5 C 2486.49,1014.48 2487.16,1047.82 2486.5,1081.5C 2460.09,1075.38 2446.43,1058.72 2445.5,1031.5C 2446.65,1005.38 2459.65,988.71 2484.5,981.5 Z M 2527.5,981.5 C 2554.36,987.363 2568.03,1004.03 2568.5,1031.5C 2568,1059 2554.33,1075.66 2527.5,1081.5C 2527.5,1048.17 2527.5,1014.83 2527.5,981.5 Z"/></g>
<g><path style="opacity:0.986" fill="#0e1c9b" d="M 2714.5,922.5 C 2756.54,917.595 2786.71,933.928 2805,971.5C 2817.17,999.026 2820.84,1027.69 2816,1057.5C 2811.94,1085.14 2799.44,1107.98 2778.5,1126C 2756.03,1140.35 2731.7,1144.69 2705.5,1139C 2688.48,1135.24 2674.32,1126.74 2663,1113.5C 2640.06,1081.81 2631.72,1046.47 2638,1007.5C 2641.87,978.924 2654.7,955.424 2676.5,937C 2688.15,929.286 2700.82,924.453 2714.5,922.5 Z M 2722.5,963.5 C 2739.85,962.084 2751.68,969.417 2758,985.5C 2766.73,1014.31 2767.4,1043.31 2760,1072.5C 2752.67,1096.08 2737.17,1104.25 2713.5,1097C 2702.42,1090.23 2695.59,1080.4 2693,1067.5C 2689.71,1049.98 2688.71,1032.31 2690,1014.5C 2690.74,1004.89 2692.74,995.56 2696,986.5C 2700.75,973.899 2709.59,966.232 2722.5,963.5 Z"/></g>
<g><path style="opacity:0.976" fill="#0e1c9b" d="M -0.5,1012.5 C -0.5,997.167 -0.5,981.833 -0.5,966.5C 7.80841,953.231 16.1417,939.898 24.5,926.5C 30.5,925.167 36.5,925.167 42.5,926.5C 36.1055,940.289 29.4388,953.956 22.5,967.5C 29.1335,968.497 35.8002,968.83 42.5,968.5C 42.5,983.167 42.5,997.833 42.5,1012.5C 28.1667,1012.5 13.8333,1012.5 -0.5,1012.5 Z"/></g>
<g><path style="opacity:0.973" fill="#0e1c9b" d="M 85.5,925.5 C 91.5092,925.334 97.5092,925.501 103.5,926C 96.1667,940 88.8333,954 81.5,968C 88.8258,968.5 96.1591,968.666 103.5,968.5C 103.5,983.167 103.5,997.833 103.5,1012.5C 89.1667,1012.5 74.8333,1012.5 60.5,1012.5C 60.3334,997.496 60.5001,982.496 61,967.5C 69.4307,953.637 77.5973,939.637 85.5,925.5 Z"/></g>
<g><path style="opacity:0.988" fill="#0e1c9b" d="M 140.5,925.5 C 181.167,925.5 221.833,925.5 262.5,925.5C 262.5,939.833 262.5,954.167 262.5,968.5C 238.5,968.5 214.5,968.5 190.5,968.5C 190.5,1024.83 190.5,1081.17 190.5,1137.5C 173.833,1137.5 157.167,1137.5 140.5,1137.5C 140.5,1066.83 140.5,996.167 140.5,925.5 Z"/></g>
<g><path style="opacity:0.986" fill="#0e1c9b" d="M 329.5,925.5 C 349.167,925.5 368.833,925.5 388.5,925.5C 410.167,996.167 431.833,1066.83 453.5,1137.5C 435.488,1137.83 417.488,1137.5 399.5,1136.5C 395.26,1122.61 390.927,1108.78 386.5,1095C 364.167,1094.33 341.833,1094.33 319.5,1095C 314.867,1109.07 310.533,1123.23 306.5,1137.5C 291.496,1137.67 276.496,1137.5 261.5,1137C 284.068,1066.46 306.735,995.963 329.5,925.5 Z M 352.5,983.5 C 360.604,1006.82 367.937,1030.48 374.5,1054.5C 360.151,1054.83 345.818,1054.5 331.5,1053.5C 338.909,1030.27 345.909,1006.94 352.5,983.5 Z"/></g>
<g><path style="opacity:0.984" fill="#0e1c9b" d="M 475.5,925.5 C 508.835,925.333 542.168,925.5 575.5,926C 615.65,928.983 637.316,950.483 640.5,990.5C 638.924,1033.24 616.924,1056.07 574.5,1059C 558.503,1059.5 542.503,1059.67 526.5,1059.5C 526.5,1085.5 526.5,1111.5 526.5,1137.5C 509.5,1137.5 492.5,1137.5 475.5,1137.5C 475.5,1066.83 475.5,996.167 475.5,925.5 Z M 525.5,964.5 C 537.505,964.333 549.505,964.5 561.5,965C 581.897,966.964 591.063,978.13 589,998.5C 586.055,1009.78 578.888,1016.61 567.5,1019C 553.504,1019.5 539.504,1019.67 525.5,1019.5C 525.5,1001.17 525.5,982.833 525.5,964.5 Z"/></g>
<g><path style="opacity:0.986" fill="#0f1c9b" d="M 700.5,925.5 C 720.567,924.853 740.401,925.519 760,927.5C 781.641,997.422 803.474,1067.25 825.5,1137C 807.17,1137.5 788.836,1137.67 770.5,1137.5C 766.5,1123.17 762.5,1108.83 758.5,1094.5C 735.824,1094.17 713.157,1094.5 690.5,1095.5C 686.26,1109.39 681.927,1123.22 677.5,1137C 662.837,1137.5 648.17,1137.67 633.5,1137.5C 655.429,1066.71 677.763,996.045 700.5,925.5 Z M 724.5,983.5 C 732.075,1006.9 739.075,1030.57 745.5,1054.5C 731.163,1054.67 716.829,1054.5 702.5,1054C 709.936,1030.52 717.27,1007.02 724.5,983.5 Z"/></g>
<g><path style="opacity:0.985" fill="#0e1c9b" d="M 846.5,925.5 C 863.167,925.5 879.833,925.5 896.5,925.5C 896.5,952.833 896.5,980.167 896.5,1007.5C 918.167,1007.5 939.833,1007.5 961.5,1007.5C 961.5,980.167 961.5,952.833 961.5,925.5C 978.167,925.5 994.833,925.5 1011.5,925.5C 1011.5,996.167 1011.5,1066.83 1011.5,1137.5C 994.833,1137.5 978.167,1137.5 961.5,1137.5C 961.5,1108.5 961.5,1079.5 961.5,1050.5C 939.833,1050.5 918.167,1050.5 896.5,1050.5C 896.5,1079.5 896.5,1108.5 896.5,1137.5C 879.833,1137.5 863.167,1137.5 846.5,1137.5C 846.5,1066.83 846.5,996.167 846.5,925.5 Z"/></g>
<g><path style="opacity:0.979" fill="#0e1c9b" d="M 1031.5,925.5 C 1083.5,925.5 1135.5,925.5 1187.5,925.5C 1187.5,939.833 1187.5,954.167 1187.5,968.5C 1169.83,968.5 1152.17,968.5 1134.5,968.5C 1134.5,1024.83 1134.5,1081.17 1134.5,1137.5C 1117.5,1137.5 1100.5,1137.5 1083.5,1137.5C 1083.5,1081.17 1083.5,1024.83 1083.5,968.5C 1066.17,968.5 1048.83,968.5 1031.5,968.5C 1031.5,954.167 1031.5,939.833 1031.5,925.5 Z"/></g>
<g><path style="opacity:0.985" fill="#0f1c9b" d="M 1207.5,925.5 C 1224.17,925.5 1240.83,925.5 1257.5,925.5C 1257.55,969.51 1257.39,1013.51 1257,1057.5C 1261.74,1047.68 1266.74,1038.01 1272,1028.5C 1290,1002.5 1308,976.5 1326,950.5C 1327.44,942.277 1327.94,933.943 1327.5,925.5C 1344.17,925.5 1360.83,925.5 1377.5,925.5C 1377.5,996.167 1377.5,1066.83 1377.5,1137.5C 1360.83,1137.5 1344.17,1137.5 1327.5,1137.5C 1327.56,1094.16 1327.73,1050.83 1328,1007.5C 1323.78,1017.61 1318.78,1027.27 1313,1036.5C 1295,1062.5 1277,1088.5 1259,1114.5C 1257.57,1122.05 1257.07,1129.72 1257.5,1137.5C 1240.83,1137.5 1224.17,1137.5 1207.5,1137.5C 1207.5,1066.83 1207.5,996.167 1207.5,925.5 Z"/></g>
<g><path style="opacity:0.984" fill="#0e1c9b" d="M 1418.5,925.5 C 1435.17,925.5 1451.83,925.5 1468.5,925.5C 1468.63,969.858 1468.46,1014.19 1468,1058.5C 1473.49,1046.85 1479.49,1035.52 1486,1024.5C 1503.67,999.167 1521.33,973.833 1539,948.5C 1539.5,940.841 1539.67,933.174 1539.5,925.5C 1556.17,925.5 1572.83,925.5 1589.5,925.5C 1589.5,996.167 1589.5,1066.83 1589.5,1137.5C 1572.83,1137.5 1556.17,1137.5 1539.5,1137.5C 1539.37,1093.81 1539.54,1050.14 1540,1006.5C 1534.52,1018.12 1528.52,1029.45 1522,1040.5C 1504.33,1065.83 1486.67,1091.17 1469,1116.5C 1468.5,1123.49 1468.33,1130.49 1468.5,1137.5C 1451.83,1137.5 1435.17,1137.5 1418.5,1137.5C 1418.5,1066.83 1418.5,996.167 1418.5,925.5 Z"/></g>
<g><path style="opacity:0.993" fill="#0e1c9b" d="M 1631.5,925.5 C 1647.83,925.5 1664.17,925.5 1680.5,925.5C 1680.5,952.833 1680.5,980.167 1680.5,1007.5C 1702.17,1007.5 1723.83,1007.5 1745.5,1007.5C 1745.5,980.167 1745.5,952.833 1745.5,925.5C 1762.17,925.5 1778.83,925.5 1795.5,925.5C 1795.5,996.167 1795.5,1066.83 1795.5,1137.5C 1778.83,1137.5 1762.17,1137.5 1745.5,1137.5C 1745.5,1108.5 1745.5,1079.5 1745.5,1050.5C 1723.83,1050.5 1702.17,1050.5 1680.5,1050.5C 1680.5,1079.5 1680.5,1108.5 1680.5,1137.5C 1664.17,1137.5 1647.83,1137.5 1631.5,1137.5C 1631.5,1066.83 1631.5,996.167 1631.5,925.5 Z"/></g>
<g><path style="opacity:0.99" fill="#0f1c9b" d="M 1838.5,925.5 C 1854.83,925.5 1871.17,925.5 1887.5,925.5C 1887.5,951.5 1887.5,977.5 1887.5,1003.5C 1908.86,1003.11 1930.2,1003.61 1951.5,1005C 1978.31,1008.48 1995.15,1023.31 2002,1049.5C 2008.92,1078.02 2002.08,1102.52 1981.5,1123C 1970.79,1130.8 1958.79,1135.46 1945.5,1137C 1909.83,1137.5 1874.17,1137.67 1838.5,1137.5C 1838.5,1066.83 1838.5,996.167 1838.5,925.5 Z M 1887.5,1042.5 C 1901.84,1042.33 1916.17,1042.5 1930.5,1043C 1945.79,1045.13 1953.46,1053.97 1953.5,1069.5C 1952.94,1088.13 1943.27,1097.3 1924.5,1097C 1912.17,1097.5 1899.84,1097.67 1887.5,1097.5C 1887.5,1079.17 1887.5,1060.83 1887.5,1042.5 Z"/></g>
<g><path style="opacity:0.974" fill="#0e1c9b" d="M 2024.5,925.5 C 2041.17,925.5 2057.83,925.5 2074.5,925.5C 2074.5,996.167 2074.5,1066.83 2074.5,1137.5C 2057.83,1137.5 2041.17,1137.5 2024.5,1137.5C 2024.5,1066.83 2024.5,996.167 2024.5,925.5 Z"/></g>
<g><path style="opacity:0.988" fill="#0e1c9b" d="M 2117.5,925.5 C 2134.17,925.5 2150.83,925.5 2167.5,925.5C 2167.49,969.507 2167.32,1013.51 2167,1057.5C 2172.08,1047.01 2177.41,1036.68 2183,1026.5C 2200.67,1001.17 2218.33,975.833 2236,950.5C 2237.44,942.277 2237.94,933.943 2237.5,925.5C 2254.17,925.5 2270.83,925.5 2287.5,925.5C 2287.5,996.167 2287.5,1066.83 2287.5,1137.5C 2270.83,1137.5 2254.17,1137.5 2237.5,1137.5C 2237.43,1094.16 2237.6,1050.82 2238,1007.5C 2232.84,1018.48 2227.18,1029.15 2221,1039.5C 2203.33,1064.83 2185.67,1090.17 2168,1115.5C 2167.5,1122.83 2167.33,1130.16 2167.5,1137.5C 2150.83,1137.5 2134.17,1137.5 2117.5,1137.5C 2117.5,1066.83 2117.5,996.167 2117.5,925.5 Z"/></g>
<g><path style="opacity:0.993" fill="#0e1c9b" d="M 2849.5,925.5 C 2865.83,925.5 2882.17,925.5 2898.5,925.5C 2898.5,952.833 2898.5,980.167 2898.5,1007.5C 2920.17,1007.5 2941.83,1007.5 2963.5,1007.5C 2963.5,980.167 2963.5,952.833 2963.5,925.5C 2980.17,925.5 2996.83,925.5 3013.5,925.5C 3013.5,996.167 3013.5,1066.83 3013.5,1137.5C 2996.83,1137.5 2980.17,1137.5 2963.5,1137.5C 2963.5,1108.5 2963.5,1079.5 2963.5,1050.5C 2941.83,1050.5 2920.17,1050.5 2898.5,1050.5C 2898.5,1079.5 2898.5,1108.5 2898.5,1137.5C 2882.17,1137.5 2865.83,1137.5 2849.5,1137.5C 2849.5,1066.83 2849.5,996.167 2849.5,925.5 Z"/></g>
<g><path style="opacity:0.987" fill="#0f1c9b" d="M 3234.5,1182.5 C 3223.5,1182.5 3212.5,1182.5 3201.5,1182.5C 3199.91,1167.49 3198.24,1152.49 3196.5,1137.5C 3153.5,1137.5 3110.5,1137.5 3067.5,1137.5C 3065.61,1152.47 3063.95,1167.47 3062.5,1182.5C 3051.5,1182.5 3040.5,1182.5 3029.5,1182.5C 3029.5,1154.17 3029.5,1125.83 3029.5,1097.5C 3036.62,1098.1 3043.45,1097.44 3050,1095.5C 3064.48,1038.9 3078.65,982.232 3092.5,925.5C 3118.51,925.167 3144.51,925.5 3170.5,926.5C 3185,983.161 3199.5,1039.83 3214,1096.5C 3220.74,1097.48 3227.58,1097.81 3234.5,1097.5C 3234.5,1125.83 3234.5,1154.17 3234.5,1182.5 Z M 3122.5,966.5 C 3125.45,966.223 3128.28,966.556 3131,967.5C 3140.84,1010.85 3150.67,1054.18 3160.5,1097.5C 3138.16,1097.67 3115.83,1097.5 3093.5,1097C 3103.71,1053.64 3113.38,1010.14 3122.5,966.5 Z"/></g>
<g><path style="opacity:0.975" fill="#0e1c9b" d="M 3246.5,925.5 C 3260.83,925.5 3275.17,925.5 3289.5,925.5C 3289.67,940.837 3289.5,956.17 3289,971.5C 3281,984.833 3273,998.167 3265,1011.5C 3258.92,1012.64 3252.75,1012.81 3246.5,1012C 3254.09,998.158 3261.42,984.158 3268.5,970C 3261.17,969.5 3253.84,969.334 3246.5,969.5C 3246.5,954.833 3246.5,940.167 3246.5,925.5 Z"/></g>
<g><path style="opacity:0.973" fill="#0f1c9b" d="M 3350.5,925.5 C 3350.5,940.833 3350.5,956.167 3350.5,971.5C 3341.69,984.433 3333.36,997.766 3325.5,1011.5C 3319.5,1012.83 3313.5,1012.83 3307.5,1011.5C 3314.44,997.956 3321.11,984.289 3327.5,970.5C 3320.87,969.503 3314.2,969.17 3307.5,969.5C 3307.5,954.833 3307.5,940.167 3307.5,925.5C 3321.83,925.5 3336.17,925.5 3350.5,925.5 Z"/></g>
</svg>
